<svg width="277" height="95" viewBox="0 0 277 95" fill="none" xmlns="http://www.w3.org/2000/svg">
<path fill-rule="evenodd" clip-rule="evenodd" d="M24.9325 85.5876H31.2553C32.1914 85.5876 32.9573 86.3584 32.9573 87.3004V89.1355C32.9573 90.0784 32.1914 90.8492 31.2553 90.8492H24.9325C23.9963 90.8492 23.2304 90.0784 23.2304 89.1355V87.3004C23.2304 86.3584 23.9963 85.5876 24.9325 85.5876ZM56.1877 56.6165V88.3779C56.1877 92.0201 53.2265 95 49.6062 95H6.58156C2.96123 95 0 92.0201 0 88.3779V45.8304L7.31188 33.0869C10.1177 28.1959 16.3918 26.5049 21.2514 29.3284L30.0725 34.4527L33.1162 29.1466L42.7285 45.8374L23.5587 45.8059L26.6033 40.499L21.3521 37.4483C19.7951 36.5439 17.7882 37.0857 16.8894 38.6516L6.45651 56.8349V81.3345L6.58156 81.4595H49.6062L49.7312 81.3345V66.7996C50.4641 66.0787 51.1033 65.3027 51.7207 64.3956L56.1877 56.6165Z" fill="#214192"/>
<path fill-rule="evenodd" clip-rule="evenodd" d="M23.5587 5.96666H32.6291C33.0633 5.96666 33.4176 6.32407 33.4176 6.76012C33.4176 7.19705 33.0633 7.55359 32.6291 7.55359H23.5587C23.1245 7.55359 22.7702 7.19705 22.7702 6.76012C22.7702 6.32407 23.1245 5.96666 23.5587 5.96666ZM6.58156 -7.62939e-05H49.6062C53.2265 -7.62939e-05 56.1877 2.9798 56.1877 6.62293V49.1695L48.8758 61.9139C46.0701 66.8049 39.7959 68.4959 34.9364 65.6724L26.1152 60.5472L23.0706 65.8542L13.4584 49.1634L32.6291 49.1949L29.5845 54.5018L34.8356 57.5525C36.3918 58.4569 38.3995 57.9151 39.2983 56.3492L49.7312 38.165V13.9756L49.5141 13.5404H6.58156L6.45651 13.9756V28.1995C5.72446 28.9204 5.08445 29.6981 4.46702 30.6052L0 38.3834V6.62293C0 2.9798 2.96123 -7.62939e-05 6.58156 -7.62939e-05Z" fill="#7C868D"/>
<path d="M78.4349 42.5011V38.2205C78.4349 35.9574 77.3155 34.7285 74.8222 34.7285H70.7516C68.2991 34.7285 67.1797 35.9574 67.1797 38.2205V56.0801C67.1797 58.3842 68.2991 59.6131 70.7516 59.6131H74.8222C77.3155 59.6131 78.4349 58.3842 78.4349 56.0801V51.8712H74.9036V55.6397C74.9036 56.5921 74.7103 56.7969 73.7842 56.7969H71.8303C70.9043 56.7969 70.6804 56.5921 70.6804 55.6397V38.6916C70.6804 37.7392 70.9043 37.5446 71.8303 37.5446H73.7842C74.7103 37.5446 74.9036 37.7392 74.9036 38.6916V42.5011H78.4349ZM88.7259 40.2072V55.2813C88.7259 56.3156 88.3392 56.674 87.4538 56.674H86.1105C85.1845 56.674 84.9606 56.4795 84.9606 55.5271V40.2072H81.5006V56.0801C81.5006 58.3432 82.5793 59.5721 84.9606 59.5721H86.3446C87.5352 59.5721 88.3799 59.0908 88.7259 58.0258V59.5721H92.1757V40.2072H88.7259ZM108.611 40.2072C107.227 40.2072 106.229 40.8011 105.924 41.9891C105.456 40.8421 104.428 40.2072 102.739 40.2072H101.396C100.205 40.2072 99.3603 40.6783 99.0143 41.7535V40.2072H95.5543V59.5721H99.0143V44.4878C99.0143 43.4535 99.3909 43.095 100.276 43.095H101.62C102.546 43.095 102.769 43.2998 102.769 44.2522V59.5721H106.229V44.4878C106.229 43.4535 106.616 43.095 107.461 43.095H108.835C109.761 43.095 109.954 43.2998 109.954 44.2522V59.5721H113.404V43.73C113.404 41.4361 112.335 40.2072 109.954 40.2072H108.611ZM123.809 55.5271C123.809 56.4795 123.585 56.674 122.659 56.674H121.316C120.431 56.674 120.054 56.3156 120.054 55.2813V44.4468C120.054 43.4125 120.431 43.0643 121.316 43.0643H122.659C123.585 43.0643 123.809 43.2998 123.809 44.2113V55.5271ZM122.436 40.1662C121.245 40.1662 120.4 40.6373 120.054 41.7126V33.0183H116.594V59.5721H120.054V58.0258C120.4 59.0908 121.245 59.5721 122.436 59.5721H123.779C126.15 59.5721 127.269 58.3432 127.269 56.0801V43.6992C127.269 41.3951 126.15 40.1662 123.779 40.1662H122.436ZM133.714 48.3792V44.1703C133.714 43.2589 133.948 43.0234 134.874 43.0234H136.756C137.672 43.0234 137.866 43.2589 137.866 44.1703V48.3792H133.714ZM133.907 40.2072C131.454 40.2072 130.335 41.4361 130.335 43.73V56.0801C130.335 58.3432 131.454 59.5721 133.907 59.5721H137.601C140.054 59.5721 141.163 58.3432 141.163 56.0801V53.9705H137.784V55.5681C137.784 56.5204 137.56 56.756 136.634 56.756H134.874C133.948 56.756 133.714 56.5204 133.714 55.5988V51.0008H141.285V43.73C141.285 41.4361 140.166 40.2072 137.672 40.2072H133.907ZM150.729 40.1662C149.07 40.1662 148.073 41.3132 147.696 42.583V40.2072H144.236V59.5721H147.696V46.1979C147.696 44.2113 148.459 43.2589 150.108 43.2589H151.492V40.1662L150.729 40.1662ZM156.835 59.5721V33.0183H153.375V59.5721H156.835ZM164.584 56.674C163.668 56.674 163.434 56.4795 163.434 55.5271V44.2522C163.434 43.2998 163.668 43.095 164.584 43.095H165.927C166.813 43.095 167.199 43.4535 167.199 44.4878V55.2813C167.199 56.3156 166.813 56.674 165.927 56.674H164.584ZM167.199 40.2072V41.7535C166.853 40.6783 166.009 40.2072 164.818 40.2072H163.434C161.053 40.2072 159.974 41.4361 159.974 43.73V56.0801C159.974 58.3432 161.053 59.5721 163.434 59.5721H164.818C166.009 59.5721 166.853 59.0908 167.199 58.0258V59.5721H170.649V40.2072H167.199ZM179.869 40.2072C178.678 40.2072 177.834 40.6783 177.488 41.7535V40.2072H174.028V59.5721H177.488V44.4878C177.488 43.4535 177.864 43.095 178.75 43.095H180.093C181.019 43.095 181.243 43.2998 181.243 44.2522V59.5721H184.703V43.73C184.703 41.4361 183.584 40.2072 181.212 40.2072H179.869ZM192.417 56.674C191.501 56.674 191.267 56.4795 191.267 55.5271V44.2113C191.267 43.2998 191.501 43.0643 192.417 43.0643H193.76C194.645 43.0643 195.032 43.4125 195.032 44.4468V55.2813C195.032 56.3156 194.645 56.674 193.76 56.674H192.417ZM195.032 33.0183V41.7126C194.686 40.6373 193.841 40.1662 192.651 40.1662H191.267C188.886 40.1662 187.807 41.3951 187.807 43.6992V56.0801C187.807 58.3432 188.886 59.5721 191.267 59.5721H192.651C193.841 59.5721 194.686 59.0908 195.032 58.0258V59.5721H198.482V33.0183H195.032ZM216.304 34.7285V45.7576H211.195V34.7285H207.735V59.5721H211.195V48.6557H216.304V59.5721H219.753V34.7285H216.304ZM226.737 48.3792V44.1703C226.737 43.2589 226.971 43.0234 227.897 43.0234H229.78C230.696 43.0234 230.889 43.2589 230.889 44.1703V48.3792H226.737ZM226.93 40.2072C224.478 40.2072 223.358 41.4361 223.358 43.73V56.0801C223.358 58.3432 224.478 59.5721 226.93 59.5721H230.624C233.077 59.5721 234.186 58.3432 234.186 56.0801V53.9705H230.808V55.5681C230.808 56.5204 230.584 56.756 229.658 56.756H227.897C226.971 56.756 226.737 56.5204 226.737 55.5988V51.0008H234.308V43.73C234.308 41.4361 233.189 40.2072 230.696 40.2072H226.93ZM241.638 56.674C240.722 56.674 240.488 56.4795 240.488 55.5271V44.2522C240.488 43.2998 240.722 43.095 241.638 43.095H242.981C243.867 43.095 244.253 43.4535 244.253 44.4878V55.2813C244.253 56.3156 243.867 56.674 242.981 56.674H241.638ZM244.253 40.2072V41.7535C243.907 40.6783 243.063 40.2072 241.872 40.2072H240.488C238.107 40.2072 237.028 41.4361 237.028 43.73V56.0801C237.028 58.3432 238.107 59.5721 240.488 59.5721H241.872C243.063 59.5721 243.907 59.0908 244.253 58.0258V59.5721H247.703V40.2072H244.253ZM254.542 59.5721V33.0183H251.082V59.5721H254.542ZM264.255 43.095V40.2072H261.681V36.9097H258.18V40.2072H256.419V43.095H258.18V56.0801C258.18 58.3432 259.299 59.5721 261.793 59.5721H264.255V56.5204H262.79C261.874 56.5204 261.681 56.3156 261.681 55.3632V43.095H264.255ZM272.165 40.2072C270.974 40.2072 270.13 40.6783 269.784 41.7535V33.0183H266.324V59.5721H269.784V44.4878C269.784 43.4535 270.16 43.095 271.045 43.095H272.389C273.315 43.095 273.539 43.2998 273.539 44.2522V59.5721H276.999V43.73C276.999 41.4361 275.879 40.2072 273.508 40.2072H272.165Z" fill="#214192"/>
<path d="M68.9327 73.0333L69.7061 67.6365L70.5813 73.0333H68.9327ZM71.1105 76.3205H72.1587L70.5406 66.9095H68.8818L67.4062 76.3205H68.4544L68.8106 73.9242H70.7238L71.1105 76.3205ZM78.1196 71.1695C78.1196 71.5689 78.0381 71.6406 77.6413 71.6406H76.2369V67.8004H77.6413C78.0381 67.8004 78.1196 67.8721 78.1196 68.2715V71.1695ZM75.1989 66.9095V76.3205H76.2369V72.5418H77.9466C78.7505 72.5418 79.1474 72.1424 79.1474 71.3436V68.0974C79.1474 67.2986 78.7505 66.9095 77.9466 66.9095H75.1989ZM81.7271 75.4296C81.3302 75.4296 81.259 75.3477 81.259 74.9585V70.34C81.259 69.9509 81.3302 69.869 81.7271 69.869H82.3377C82.6939 69.869 82.8465 70.0123 82.8465 70.422V74.8869C82.8465 75.2862 82.6939 75.4296 82.3377 75.4296H81.7271ZM82.8465 68.978V69.4798C82.7244 69.1112 82.4293 68.978 82.0121 68.978H81.4117C80.5975 68.978 80.2108 69.3774 80.2108 70.1762V75.1224C80.2108 75.9314 80.5975 76.3205 81.4117 76.3205H82.0121C82.4293 76.3205 82.7244 76.1874 82.8465 75.8188V76.3205H83.8947V68.978H82.8465ZM87.4082 68.978C86.8077 68.978 86.4516 69.4082 86.3091 69.828V68.978H85.2609V76.3205H86.3091V71.0262C86.3091 70.2479 86.594 69.8895 87.2657 69.8895H87.7236V68.978H87.4082ZM90.6367 69.869V68.978H89.5885V67.7799H88.5403V68.978H87.8686V69.869H88.5403V75.1224C88.5403 75.9314 88.9372 76.3205 89.7411 76.3205H90.6367V75.3477H90.0566C89.6699 75.3477 89.5885 75.276 89.5885 74.8869V69.869H90.6367ZM96.2821 74.9585C96.2821 75.3477 96.2108 75.4296 95.8139 75.4296H94.8675C94.4808 75.4296 94.3994 75.3477 94.3994 74.9585V70.34C94.3994 69.9509 94.4808 69.869 94.8675 69.869H95.8139C96.2108 69.869 96.2821 69.9509 96.2821 70.34V74.9585ZM94.5724 68.978C93.7583 68.978 93.3716 69.3774 93.3716 70.1762V75.1224C93.3716 75.9314 93.7583 76.3205 94.5724 76.3205H96.1192C96.9232 76.3205 97.3201 75.9314 97.3201 75.1224V70.1762C97.3201 69.3774 96.9232 68.978 96.1192 68.978H94.5724ZM100.831 67.1655V66.1926H99.9253C99.1213 66.1926 98.7244 66.592 98.7244 67.3908V68.978H97.9917V69.869H98.7244V76.3205H99.7726V69.869H100.831V68.978H99.7726V67.6365C99.7726 67.2372 99.8438 67.1655 100.241 67.1655H100.831ZM107.514 69.6949V68.0974C107.514 67.2986 107.117 66.9095 106.314 66.9095H104.838C104.034 66.9095 103.647 67.2986 103.647 68.0974V75.1429C103.647 75.9416 104.034 76.3308 104.838 76.3308H106.314C107.117 76.3308 107.514 75.9416 107.514 75.1429V73.5556H106.466V74.9688C106.466 75.3682 106.395 75.4399 105.998 75.4399H105.164C104.767 75.4399 104.695 75.3682 104.695 74.9688V68.2715C104.695 67.8721 104.767 67.8004 105.164 67.8004H105.998C106.395 67.8004 106.466 67.8721 106.466 68.2715V69.6949H107.514ZM111.45 68.978V74.8869C111.45 75.2862 111.297 75.4296 110.931 75.4296H110.321C109.934 75.4296 109.852 75.3477 109.852 74.9585V68.978H108.804V75.1224C108.804 75.9314 109.201 76.3205 110.005 76.3205H110.616C111.023 76.3205 111.328 76.1874 111.45 75.8188V76.3205H112.498V68.978H111.45ZM118.385 68.978C117.917 68.978 117.561 69.1419 117.459 69.5822C117.286 69.1726 116.93 68.978 116.35 68.978H115.74C115.332 68.978 115.027 69.1112 114.905 69.4798V68.978H113.857V76.3205H114.905V70.422C114.905 70.0123 115.058 69.869 115.424 69.869H116.024C116.421 69.869 116.503 69.9509 116.503 70.34V76.3205H117.551V70.422C117.551 70.0123 117.704 69.869 118.06 69.869H118.67C119.067 69.869 119.138 69.9509 119.138 70.34V76.3205H120.187V70.1762C120.187 69.3774 119.8 68.978 118.986 68.978H118.385ZM124.125 74.9585C124.125 75.3477 124.044 75.4296 123.647 75.4296H123.046C122.68 75.4296 122.527 75.2862 122.527 74.8869V70.4015C122.527 69.9919 122.68 69.8587 123.046 69.8587H123.647C124.044 69.8587 124.125 69.9304 124.125 70.3298V74.9585ZM123.362 68.9678C122.955 68.9678 122.649 69.1009 122.527 69.4594V66.1926H121.479V76.3205H122.527V75.8188C122.649 76.1874 122.955 76.3205 123.362 76.3205H123.972C124.776 76.3205 125.173 75.9314 125.173 75.1224V70.1557C125.173 69.357 124.776 68.9678 123.972 68.9678H123.362ZM127.506 72.1117V70.34C127.506 69.9509 127.588 69.869 127.974 69.869H128.737C129.134 69.869 129.206 69.9509 129.206 70.34V72.1117H127.506ZM127.659 68.978C126.855 68.978 126.458 69.3774 126.458 70.1762V75.1224C126.458 75.9314 126.855 76.3205 127.659 76.3205H129.012C129.816 76.3205 130.213 75.9314 130.213 75.1224V74.2929H129.165V74.9585C129.165 75.3477 129.083 75.4296 128.687 75.4296H127.974C127.588 75.4296 127.506 75.3477 127.506 74.9585V73.0026H130.254V70.1762C130.254 69.3774 129.857 68.978 129.053 68.978H127.659ZM133.612 68.978C133.012 68.978 132.655 69.4082 132.513 69.828V68.978H131.465V76.3205H132.513V71.0262C132.513 70.2479 132.798 69.8895 133.47 69.8895H133.927V68.978H133.612ZM135.731 76.3205V66.1926H134.683V76.3205H135.731ZM138.543 75.4296C138.146 75.4296 138.074 75.3477 138.074 74.9585V70.34C138.074 69.9509 138.146 69.869 138.543 69.869H139.153C139.509 69.869 139.662 70.0123 139.662 70.422V74.8869C139.662 75.2862 139.509 75.4296 139.153 75.4296H138.543ZM139.662 68.978V69.4798C139.54 69.1112 139.245 68.978 138.827 68.978H138.227C137.413 68.978 137.026 69.3774 137.026 70.1762V75.1224C137.026 75.9314 137.413 76.3205 138.227 76.3205H138.827C139.245 76.3205 139.54 76.1874 139.662 75.8188V76.3205H140.71V68.978H139.662ZM143.959 68.978C143.552 68.978 143.247 69.1112 143.124 69.4798V68.978H142.076V76.3205H143.124V70.422C143.124 70.0123 143.277 69.869 143.643 69.869H144.244C144.641 69.869 144.722 69.9509 144.722 70.34V76.3205H145.77V70.1762C145.77 69.3774 145.373 68.978 144.57 68.978H143.959ZM148.577 75.4296C148.18 75.4296 148.108 75.3477 148.108 74.9585V70.3298C148.108 69.9304 148.18 69.8587 148.577 69.8587H149.187C149.543 69.8587 149.696 69.9919 149.696 70.4015V74.8869C149.696 75.2862 149.543 75.4296 149.187 75.4296H148.577ZM149.696 66.1926V69.4594C149.574 69.1009 149.279 68.9678 148.861 68.9678H148.261C147.447 68.9678 147.06 69.357 147.06 70.1557V75.1224C147.06 75.9314 147.447 76.3205 148.261 76.3205H148.861C149.279 76.3205 149.574 76.1874 149.696 75.8188V76.3205H150.744V66.1926H149.696ZM157.929 67.8004V66.9095H154.235V76.3205H155.283V72.0195H157.318V71.1286H155.283V67.8004H157.929ZM160.127 75.4296C159.73 75.4296 159.659 75.3477 159.659 74.9585V70.34C159.659 69.9509 159.73 69.869 160.127 69.869H160.737C161.094 69.869 161.246 70.0123 161.246 70.422V74.8869C161.246 75.2862 161.094 75.4296 160.737 75.4296H160.127ZM161.246 68.978V69.4798C161.124 69.1112 160.829 68.978 160.412 68.978H159.811C158.997 68.978 158.611 69.3774 158.611 70.1762V75.1224C158.611 75.9314 158.997 76.3205 159.811 76.3205H160.412C160.829 76.3205 161.124 76.1874 161.246 75.8188V76.3205H162.294V68.978H161.246ZM168.189 68.978C167.721 68.978 167.365 69.1419 167.263 69.5822C167.09 69.1726 166.734 68.978 166.154 68.978H165.543C165.136 68.978 164.831 69.1112 164.709 69.4798V68.978H163.661V76.3205H164.709V70.422C164.709 70.0123 164.861 69.869 165.228 69.869H165.828C166.225 69.869 166.307 69.9509 166.307 70.34V76.3205H167.355V70.422C167.355 70.0123 167.507 69.869 167.864 69.869H168.474C168.871 69.869 168.942 69.9509 168.942 70.34V76.3205H169.99V70.1762C169.99 69.3774 169.604 68.978 168.79 68.978H168.189ZM172.328 76.3205V68.978H171.28V76.3205H172.328ZM171.25 67.401H172.359V66.1824H171.25V67.401ZM174.743 76.3205V66.1926H173.695V76.3205H174.743ZM175.577 68.978L176.992 76.3205H177.674L177.491 77.0886C177.399 77.4675 177.124 77.5596 176.727 77.5596H176.229V78.4506H177.053C177.857 78.4506 178.335 78.041 178.488 77.2627L179.963 68.978H178.915L177.806 75.5935L176.626 68.978H175.577ZM186.252 74.2724L187.575 69.1931V76.3205H188.471V66.9095H187.331L185.693 72.9616L184.065 66.9095H182.925V76.3205H183.82V69.1931L185.143 74.2724H186.252ZM191.03 72.1117V70.34C191.03 69.9509 191.112 69.869 191.498 69.869H192.262C192.659 69.869 192.73 69.9509 192.73 70.34V72.1117H191.03ZM191.183 68.978C190.379 68.978 189.982 69.3774 189.982 70.1762V75.1224C189.982 75.9314 190.379 76.3205 191.183 76.3205H192.536C193.34 76.3205 193.737 75.9314 193.737 75.1224V74.2929H192.689V74.9585C192.689 75.3477 192.608 75.4296 192.211 75.4296H191.498C191.112 75.4296 191.03 75.3477 191.03 74.9585V73.0026H193.778V70.1762C193.778 69.3774 193.381 68.978 192.577 68.978H191.183ZM196.437 75.4296C196.04 75.4296 195.969 75.3477 195.969 74.9585V70.3298C195.969 69.9304 196.04 69.8587 196.437 69.8587H197.047C197.403 69.8587 197.556 69.9919 197.556 70.4015V74.8869C197.556 75.2862 197.403 75.4296 197.047 75.4296H196.437ZM197.556 66.1926V69.4594C197.434 69.1009 197.139 68.9678 196.722 68.9678H196.121C195.307 68.9678 194.92 69.357 194.92 70.1557V75.1224C194.92 75.9314 195.307 76.3205 196.121 76.3205H196.722C197.139 76.3205 197.434 76.1874 197.556 75.8188V76.3205H198.604V66.1926H197.556ZM201.019 76.3205V68.978H199.97V76.3205H201.019ZM199.94 67.401H201.049V66.1824H199.94V67.401ZM206.107 71.1593V70.1762C206.107 69.3774 205.71 68.978 204.906 68.978H203.512C202.698 68.978 202.311 69.3774 202.311 70.1762V75.1224C202.311 75.9314 202.698 76.3205 203.512 76.3205H204.906C205.71 76.3205 206.107 75.9314 206.107 75.1224V74.1393H205.059V74.9585C205.059 75.3477 204.977 75.4296 204.58 75.4296H203.827C203.43 75.4296 203.359 75.3477 203.359 74.9585V70.34C203.359 69.9509 203.43 69.869 203.827 69.869H204.58C204.977 69.869 205.059 69.9509 205.059 70.34V71.1593H206.107ZM208.76 75.4296C208.363 75.4296 208.292 75.3477 208.292 74.9585V70.34C208.292 69.9509 208.363 69.869 208.76 69.869H209.371C209.727 69.869 209.88 70.0123 209.88 70.422V74.8869C209.88 75.2862 209.727 75.4296 209.371 75.4296H208.76ZM209.88 68.978V69.4798C209.758 69.1112 209.463 68.978 209.045 68.978H208.445C207.631 68.978 207.244 69.3774 207.244 70.1762V75.1224C207.244 75.9314 207.631 76.3205 208.445 76.3205H209.045C209.463 76.3205 209.758 76.1874 209.88 75.8188V76.3205H210.928V68.978H209.88ZM213.342 76.3205V66.1926H212.294V76.3205H213.342ZM220.629 69.6949V68.0974C220.629 67.2986 220.232 66.9095 219.428 66.9095H217.952C217.148 66.9095 216.762 67.2986 216.762 68.0974V75.1429C216.762 75.9416 217.148 76.3308 217.952 76.3308H219.428C220.232 76.3308 220.629 75.9416 220.629 75.1429V73.5556H219.581V74.9688C219.581 75.3682 219.509 75.4399 219.112 75.4399H218.278C217.881 75.4399 217.81 75.3682 217.81 74.9688V68.2715C217.81 67.8721 217.881 67.8004 218.278 67.8004H219.112C219.509 67.8004 219.581 67.8721 219.581 68.2715V69.6949H220.629ZM222.967 72.1117V70.34C222.967 69.9509 223.048 69.869 223.435 69.869H224.198C224.595 69.869 224.666 69.9509 224.666 70.34V72.1117H222.967ZM223.119 68.978C222.315 68.978 221.919 69.3774 221.919 70.1762V75.1224C221.919 75.9314 222.315 76.3205 223.119 76.3205H224.473C225.277 76.3205 225.674 75.9314 225.674 75.1224V74.2929H224.626V74.9585C224.626 75.3477 224.544 75.4296 224.147 75.4296H223.435C223.048 75.4296 222.967 75.3477 222.967 74.9585V73.0026H225.714V70.1762C225.714 69.3774 225.318 68.978 224.514 68.978H223.119ZM228.811 68.978C228.404 68.978 228.098 69.1112 227.976 69.4798V68.978H226.928V76.3205H227.976V70.422C227.976 70.0123 228.129 69.869 228.495 69.869H229.096C229.492 69.869 229.574 69.9509 229.574 70.34V76.3205H230.622V70.1762C230.622 69.3774 230.225 68.978 229.421 68.978H228.811ZM234.141 69.869V68.978H233.092V67.7799H232.044V68.978H231.373V69.869H232.044V75.1224C232.044 75.9314 232.441 76.3205 233.245 76.3205H234.141V75.3477H233.56C233.174 75.3477 233.092 75.276 233.092 74.8869V69.869H234.141ZM236.021 72.1117V70.34C236.021 69.9509 236.102 69.869 236.489 69.869H237.252C237.649 69.869 237.72 69.9509 237.72 70.34V72.1117H236.021ZM236.173 68.978C235.369 68.978 234.972 69.3774 234.972 70.1762V75.1224C234.972 75.9314 235.369 76.3205 236.173 76.3205H237.527C238.331 76.3205 238.728 75.9314 238.728 75.1224V74.2929H237.679V74.9585C237.679 75.3477 237.598 75.4296 237.201 75.4296H236.489C236.102 75.4296 236.021 75.3477 236.021 74.9585V73.0026H238.768V70.1762C238.768 69.3774 238.371 68.978 237.567 68.978H236.173ZM242.129 68.978C241.529 68.978 241.173 69.4082 241.03 69.828V68.978H239.982V76.3205H241.03V71.0262C241.03 70.2479 241.315 69.8895 241.987 69.8895H242.445V68.978H242.129ZM242.976 74.6206V78.3891H243.383L244.218 75.5013V74.6206H242.976ZM247.632 66.9095V76.3205H248.66V66.9095H247.632ZM252.217 68.978C251.809 68.978 251.504 69.1112 251.382 69.4798V68.978H250.334V76.3205H251.382V70.422C251.382 70.0123 251.535 69.869 251.901 69.869H252.501C252.898 69.869 252.98 69.9509 252.98 70.34V76.3205H254.028V70.1762C254.028 69.3774 253.631 68.978 252.827 68.978H252.217ZM259.114 71.1593V70.1762C259.114 69.3774 258.717 68.978 257.913 68.978H256.519C255.705 68.978 255.318 69.3774 255.318 70.1762V75.1224C255.318 75.9314 255.705 76.3205 256.519 76.3205H257.913C258.717 76.3205 259.114 75.9314 259.114 75.1224V74.1393H258.065V74.9585C258.065 75.3477 257.984 75.4296 257.587 75.4296H256.834C256.437 75.4296 256.366 75.3477 256.366 74.9585V70.34C256.366 69.9509 256.437 69.869 256.834 69.869H257.587C257.984 69.869 258.065 69.9509 258.065 70.34V71.1593H259.114ZM260.098 76.3205H261.34V74.6206H260.098V76.3205Z" fill="#234091"/>
</svg>
